<?xml version="1.0" encoding="UTF-8"?>
<!DOCTYPE svg PUBLIC "-//W3C//DTD SVG 1.1//EN" "http://www.w3.org/Graphics/SVG/1.1/DTD/svg11.dtd">
<svg xmlns="http://www.w3.org/2000/svg" version="1.1" width="128px" height="128px" style="shape-rendering:geometricPrecision; text-rendering:geometricPrecision; image-rendering:optimizeQuality; fill-rule:evenodd; clip-rule:evenodd" xmlns:xlink="http://www.w3.org/1999/xlink">
<g><path style="opacity:1" fill="#222722" d="M 101.5,92.5 C 100.325,92.719 99.325,92.3857 98.5,91.5C 100.225,86.0502 101.058,80.3835 101,74.5C 101.333,73.5 101.667,72.5 102,71.5C 102.333,75.5 102.667,79.5 103,83.5C 104.487,82.7471 104.654,81.9138 103.5,81C 105.322,77.7414 105.989,74.4081 105.5,71C 104.875,68.1997 104.208,65.3664 103.5,62.5C 103.642,64.3823 103.142,66.3823 102,68.5C 101.333,69.8333 100.667,69.8333 100,68.5C 99.6582,70.6192 98.8249,70.9526 97.5,69.5C 98.6697,63.3405 99.6697,57.1739 100.5,51C 100.834,45.8441 99.8342,41.0108 97.5,36.5C 93.7834,30.4497 88.7834,25.7831 82.5,22.5C 81.791,21.596 80.791,21.2627 79.5,21.5C 77.7857,20.2616 75.7857,19.595 73.5,19.5C 70.7131,18.5233 67.7131,18.19 64.5,18.5C 60.7604,18.2408 57.0938,18.5741 53.5,19.5C 52.102,22.4353 52.4353,25.1019 54.5,27.5C 53.1745,31.4451 52.5079,35.7784 52.5,40.5C 52.8333,44.8333 53.1667,49.1667 53.5,53.5C 54.0014,51.3449 55.0014,49.6782 56.5,48.5C 55.7332,52.4155 55.2332,56.4155 55,60.5C 54.3109,59.6433 53.4776,58.9767 52.5,58.5C 52.0195,45.4643 51.0195,32.7976 49.5,20.5C 44.117,22.6666 39.7837,25.9999 36.5,30.5C 35.3157,29.3121 35.3157,28.1455 36.5,27C 35.552,26.5172 34.552,26.3505 33.5,26.5C 52.677,12.4212 72.3437,11.9212 92.5,25C 108.288,38.3631 114.121,55.1964 110,75.5C 108.19,81.7859 105.357,87.4525 101.5,92.5 Z"/></g>
<g><path style="opacity:1" fill="#0f3911" d="M 64.5,18.5 C 67.7131,18.19 70.7131,18.5233 73.5,19.5C 72.6618,19.8417 72.3284,20.5084 72.5,21.5C 70.3206,20.8968 68.154,20.2301 66,19.5C 65.8213,23.0252 65.3213,26.3586 64.5,29.5C 64.5,25.8333 64.5,22.1667 64.5,18.5 Z"/></g>
<g><path style="opacity:1" fill="#020502" d="M 72.5,21.5 C 72.7935,25.4367 72.4601,29.27 71.5,33C 72.0659,33.9947 72.7326,34.828 73.5,35.5C 74.1667,36.5 74.8333,37.5 75.5,38.5C 75.6312,45.6802 75.6312,52.6802 75.5,59.5C 73.1602,60.086 70.9935,61.086 69,62.5C 68.7679,61.2625 68.2679,60.2625 67.5,59.5C 68.6323,54.2561 68.6323,49.2561 67.5,44.5C 68.6517,40.9465 68.485,37.2798 67,33.5C 66.6667,34.8333 66.3333,36.1667 66,37.5C 65.8091,35.2922 65.3091,33.2922 64.5,31.5C 64.5,30.8333 64.5,30.1667 64.5,29.5C 65.3213,26.3586 65.8213,23.0252 66,19.5C 68.154,20.2301 70.3206,20.8968 72.5,21.5 Z"/></g>
<g><path style="opacity:1" fill="#387e38" d="M 64.5,18.5 C 64.5,22.1667 64.5,25.8333 64.5,29.5C 64.5,30.1667 64.5,30.8333 64.5,31.5C 64.5,34.5 64.5,37.5 64.5,40.5C 64.5,49.1667 64.5,57.8333 64.5,66.5C 63.8333,66.5 63.5,66.1667 63.5,65.5C 63.6666,50.163 63.4999,34.8297 63,19.5C 62.0934,25.4727 61.4267,31.4727 61,37.5C 60.7982,31.354 59.7982,25.354 58,19.5C 57.8227,23.3563 57.3227,27.023 56.5,30.5C 54.9519,30.1788 54.2852,29.1788 54.5,27.5C 52.4353,25.1019 52.102,22.4353 53.5,19.5C 57.0938,18.5741 60.7604,18.2408 64.5,18.5 Z"/></g>
<g><path style="opacity:1" fill="#0f3a10" d="M 79.5,21.5 C 80.791,21.2627 81.791,21.596 82.5,22.5C 80.9122,23.6353 80.5788,24.9686 81.5,26.5C 81,27.5 80.5,28.5 80,29.5C 79.5026,26.854 79.3359,24.1873 79.5,21.5 Z"/></g>
<g><path style="opacity:1" fill="#122312" d="M 75.5,38.5 C 74.8333,37.5 74.1667,36.5 73.5,35.5C 73.1734,30.7863 73.5067,26.1196 74.5,21.5C 75.4954,27.1278 75.8288,32.7945 75.5,38.5 Z"/></g>
<g><path style="opacity:1" fill="#103b11" d="M 82.5,22.5 C 88.7834,25.7831 93.7834,30.4497 97.5,36.5C 96.8333,36.5 96.5,36.8333 96.5,37.5C 94.6184,34.1065 92.1184,31.1065 89,28.5C 88.5357,29.0944 88.369,29.7611 88.5,30.5C 87.8525,32.4982 87.0192,34.4982 86,36.5C 85.8195,33.3054 85.3195,30.3054 84.5,27.5C 84.5,26.1667 83.8333,25.5 82.5,25.5C 82.5,24.5 82.5,23.5 82.5,22.5 Z"/></g>
<g><path style="opacity:1" fill="#121612" d="M 33.5,26.5 C 34.552,26.3505 35.552,26.5172 36.5,27C 35.3157,28.1455 35.3157,29.3121 36.5,30.5C 34.668,31.1405 34.3347,32.1405 35.5,33.5C 36.1924,32.9747 36.6924,32.3081 37,31.5C 37.1858,33.9005 37.6858,36.2338 38.5,38.5C 39.3236,35.2152 39.8236,31.8818 40,28.5C 40.4857,36.1912 40.1523,43.8579 39,51.5C 38.586,51.0426 38.086,50.7093 37.5,50.5C 36.6717,45.8685 36.1717,41.2018 36,36.5C 35.6174,37.056 35.1174,37.3893 34.5,37.5C 34.4142,36.5041 34.7476,35.6708 35.5,35C 34.9056,34.5357 34.2389,34.369 33.5,34.5C 32.6715,33.6676 31.8382,34.001 31,35.5C 28.0092,44.6852 27.6759,54.0185 30,63.5C 30.6082,65.0664 31.4415,66.3998 32.5,67.5C 33.2899,68.7942 34.2899,69.9609 35.5,71C 31.2042,75.1098 30.8708,79.4431 34.5,84C 35.9976,84.5847 36.9976,84.0847 37.5,82.5C 39.2838,82.8925 40.9505,83.5592 42.5,84.5C 42.0423,87.3938 42.709,89.8938 44.5,92C 42.904,96.3783 41.904,100.878 41.5,105.5C 39.326,105.25 37.6594,104.25 36.5,102.5C 36.0269,101.094 35.0269,100.427 33.5,100.5C 30.5,98.1667 27.8333,95.5 25.5,92.5C 25.7148,90.8212 25.0481,89.8212 23.5,89.5C 15.6697,77.6931 13.6697,65.0265 17.5,51.5C 17.9714,57.7372 18.6381,62.0705 19.5,64.5C 23.4557,63.9473 23.4557,63.1139 19.5,62C 20.448,61.5172 21.448,61.3505 22.5,61.5C 22.5,54.1667 22.5,46.8333 22.5,39.5C 22.427,37.9731 23.0937,36.9731 24.5,36.5C 25.9063,36.0269 26.573,35.0269 26.5,33.5C 28.5,30.8333 30.8333,28.5 33.5,26.5 Z"/></g>
<g><path style="opacity:1" fill="#040a04" d="M 96.5,37.5 C 97.8333,39.8333 97.8333,42.1667 96.5,44.5C 95.5386,46.2646 95.2053,48.2646 95.5,50.5C 93.0504,50.298 90.717,50.6314 88.5,51.5C 88.5,44.5 88.5,37.5 88.5,30.5C 88.369,29.7611 88.5357,29.0944 89,28.5C 92.1184,31.1065 94.6184,34.1065 96.5,37.5 Z"/></g>
<g><path style="opacity:1" fill="#0d1b0b" d="M 82.5,25.5 C 83.8333,25.5 84.5,26.1667 84.5,27.5C 84.831,35.5277 84.4977,43.5277 83.5,51.5C 82.6081,42.6783 82.2747,34.0116 82.5,25.5 Z"/></g>
<g><path style="opacity:1" fill="#366c35" d="M 54.5,27.5 C 54.2852,29.1788 54.9519,30.1788 56.5,30.5C 56.1433,36.5469 56.1433,42.5469 56.5,48.5C 55.0014,49.6782 54.0014,51.3449 53.5,53.5C 53.1667,49.1667 52.8333,44.8333 52.5,40.5C 52.5079,35.7784 53.1745,31.4451 54.5,27.5 Z"/></g>
<g><path style="opacity:0.682" fill="#8a8a8a" d="M 26.5,33.5 C 26.573,35.0269 25.9063,36.0269 24.5,36.5C 24.427,34.9731 25.0937,33.9731 26.5,33.5 Z"/></g>
<g><path style="opacity:1" fill="#1e411f" d="M 64.5,31.5 C 65.3091,33.2922 65.8091,35.2922 66,37.5C 66.3333,36.1667 66.6667,34.8333 67,33.5C 68.485,37.2798 68.6517,40.9465 67.5,44.5C 67.7947,42.2646 67.4614,40.2646 66.5,38.5C 65.8333,39.1667 65.1667,39.8333 64.5,40.5C 64.5,37.5 64.5,34.5 64.5,31.5 Z"/></g>
<g><path style="opacity:1" fill="#3b813a" d="M 43.5,33.5 C 43.5,33.1667 43.5,32.8333 43.5,32.5C 45.1667,32.5 46.8333,32.5 48.5,32.5C 48.6664,40.84 48.4997,49.1733 48,57.5C 46.8873,56.695 45.7206,56.0283 44.5,55.5C 44.5191,53.9397 44.8524,52.4397 45.5,51C 44.8938,45.022 44.2272,39.1887 43.5,33.5 Z"/></g>
<g><path style="opacity:1" fill="#387737" d="M 73.5,19.5 C 75.7857,19.595 77.7857,20.2616 79.5,21.5C 79.3359,24.1873 79.5026,26.854 80,29.5C 80.5,28.5 81,27.5 81.5,26.5C 80.5788,24.9686 80.9122,23.6353 82.5,22.5C 82.5,23.5 82.5,24.5 82.5,25.5C 82.2747,34.0116 82.6081,42.6783 83.5,51.5C 84.4977,43.5277 84.831,35.5277 84.5,27.5C 85.3195,30.3054 85.8195,33.3054 86,36.5C 87.0192,34.4982 87.8525,32.4982 88.5,30.5C 88.5,37.5 88.5,44.5 88.5,51.5C 88.5,52.1667 88.5,52.8333 88.5,53.5C 84.0074,55.579 79.674,57.9123 75.5,60.5C 75.5,60.1667 75.5,59.8333 75.5,59.5C 75.6312,52.6802 75.6312,45.6802 75.5,38.5C 75.8288,32.7945 75.4954,27.1278 74.5,21.5C 73.5067,26.1196 73.1734,30.7863 73.5,35.5C 72.7326,34.828 72.0659,33.9947 71.5,33C 72.4601,29.27 72.7935,25.4367 72.5,21.5C 72.3284,20.5084 72.6618,19.8417 73.5,19.5 Z"/></g>
<g><path style="opacity:1" fill="#358434" d="M 33.5,34.5 C 33.5,45.5 33.5,56.5 33.5,67.5C 33.1667,67.5 32.8333,67.5 32.5,67.5C 31.4415,66.3998 30.6082,65.0664 30,63.5C 27.6759,54.0185 28.0092,44.6852 31,35.5C 31.8382,34.001 32.6715,33.6676 33.5,34.5 Z"/></g>
<g><path style="opacity:1" fill="#387036" d="M 56.5,48.5 C 57.4168,50.9654 58.4168,53.4654 59.5,56C 58.1459,57.9988 58.3126,59.8322 60,61.5C 60.3333,60.8333 60.6667,60.1667 61,59.5C 62.4014,61.1459 62.568,62.8125 61.5,64.5C 57.3043,63.1525 53.471,61.1525 50,58.5C 49.8641,48.4474 49.3641,39.7807 48.5,32.5C 46.8333,32.5 45.1667,32.5 43.5,32.5C 43.6633,30.1432 43.4966,27.8098 43,25.5C 42.666,33.0124 42.166,40.5124 41.5,48C 41.4229,50.0507 41.9229,51.884 43,53.5C 43.4996,46.8417 43.6663,40.175 43.5,33.5C 44.2272,39.1887 44.8938,45.022 45.5,51C 44.8524,52.4397 44.5191,53.9397 44.5,55.5C 41.2812,53.9735 38.1145,52.3068 35,50.5C 34.501,46.1794 34.3343,41.8461 34.5,37.5C 35.1174,37.3893 35.6174,37.056 36,36.5C 36.1717,41.2018 36.6717,45.8685 37.5,50.5C 38.086,50.7093 38.586,51.0426 39,51.5C 40.1523,43.8579 40.4857,36.1912 40,28.5C 39.8236,31.8818 39.3236,35.2152 38.5,38.5C 37.6858,36.2338 37.1858,33.9005 37,31.5C 36.6924,32.3081 36.1924,32.9747 35.5,33.5C 34.3347,32.1405 34.668,31.1405 36.5,30.5C 39.7837,25.9999 44.117,22.6666 49.5,20.5C 51.0195,32.7976 52.0195,45.4643 52.5,58.5C 53.4776,58.9767 54.3109,59.6433 55,60.5C 55.2332,56.4155 55.7332,52.4155 56.5,48.5 Z"/></g>
<g><path style="opacity:1" fill="#000100" d="M 43.5,32.5 C 43.5,32.8333 43.5,33.1667 43.5,33.5C 43.6663,40.175 43.4996,46.8417 43,53.5C 41.9229,51.884 41.4229,50.0507 41.5,48C 42.166,40.5124 42.666,33.0124 43,25.5C 43.4966,27.8098 43.6633,30.1432 43.5,32.5 Z"/></g>
<g><path style="opacity:1" fill="#3e7b3c" d="M 66.5,38.5 C 67.4614,40.2646 67.7947,42.2646 67.5,44.5C 68.6323,49.2561 68.6323,54.2561 67.5,59.5C 67.5,61.1667 67.5,62.8333 67.5,64.5C 66.507,56.0161 66.1736,47.3494 66.5,38.5 Z"/></g>
<g><path style="opacity:1" fill="#1a271b" d="M 22.5,39.5 C 22.5,46.8333 22.5,54.1667 22.5,61.5C 21.448,61.3505 20.448,61.5172 19.5,62C 23.4557,63.1139 23.4557,63.9473 19.5,64.5C 18.6381,62.0705 17.9714,57.7372 17.5,51.5C 18.0966,46.9831 19.7633,42.9831 22.5,39.5 Z"/></g>
<g><path style="opacity:1" fill="#0e3b0f" d="M 96.5,44.5 C 96.5,46.8333 96.5,49.1667 96.5,51.5C 93.5794,51.2826 90.9128,51.9493 88.5,53.5C 88.5,52.8333 88.5,52.1667 88.5,51.5C 90.717,50.6314 93.0504,50.298 95.5,50.5C 95.2053,48.2646 95.5386,46.2646 96.5,44.5 Z"/></g>
<g><path style="opacity:1" fill="#349133" d="M 97.5,36.5 C 99.8342,41.0108 100.834,45.8441 100.5,51C 99.6697,57.1739 98.6697,63.3405 97.5,69.5C 96.5655,70.5676 96.2322,71.901 96.5,73.5C 94.6977,72.6845 93.6977,71.1845 93.5,69C 95.9558,66.0242 96.9558,62.5242 96.5,58.5C 96.5,56.1667 96.5,53.8333 96.5,51.5C 96.5,49.1667 96.5,46.8333 96.5,44.5C 97.8333,42.1667 97.8333,39.8333 96.5,37.5C 96.5,36.8333 96.8333,36.5 97.5,36.5 Z"/></g>
<g><path style="opacity:1" fill="#040a04" d="M 63.5,65.5 C 61.847,65.6596 60.5137,66.3263 59.5,67.5C 55.8648,68.1143 52.1981,68.4476 48.5,68.5C 47.2921,67.7659 45.9587,67.4326 44.5,67.5C 40.7192,67.026 37.5525,65.3593 35,62.5C 34.6554,64.2009 35.3221,65.5342 37,66.5C 37.4974,69.146 37.6641,71.8127 37.5,74.5C 37.5,76.8333 37.5,79.1667 37.5,81.5C 35.3652,81.853 34.0319,81.0197 33.5,79C 34.0483,76.1218 35.0483,73.4551 36.5,71C 36.0222,69.3576 35.0222,68.1909 33.5,67.5C 33.5,56.5 33.5,45.5 33.5,34.5C 34.2389,34.369 34.9056,34.5357 35.5,35C 34.7476,35.6708 34.4142,36.5041 34.5,37.5C 34.3343,41.8461 34.501,46.1794 35,50.5C 38.1145,52.3068 41.2812,53.9735 44.5,55.5C 45.7206,56.0283 46.8873,56.695 48,57.5C 48.4997,49.1733 48.6664,40.84 48.5,32.5C 49.3641,39.7807 49.8641,48.4474 50,58.5C 53.471,61.1525 57.3043,63.1525 61.5,64.5C 62.568,62.8125 62.4014,61.1459 61,59.5C 60.6667,60.1667 60.3333,60.8333 60,61.5C 58.3126,59.8322 58.1459,57.9988 59.5,56C 58.4168,53.4654 57.4168,50.9654 56.5,48.5C 56.1433,42.5469 56.1433,36.5469 56.5,30.5C 57.3227,27.023 57.8227,23.3563 58,19.5C 59.7982,25.354 60.7982,31.354 61,37.5C 61.4267,31.4727 62.0934,25.4727 63,19.5C 63.4999,34.8297 63.6666,50.163 63.5,65.5 Z"/></g>
<g><path style="opacity:1" fill="#08350a" d="M 67.5,59.5 C 68.2679,60.2625 68.7679,61.2625 69,62.5C 70.9935,61.086 73.1602,60.086 75.5,59.5C 75.5,59.8333 75.5,60.1667 75.5,60.5C 73.1515,62.341 70.4848,63.6743 67.5,64.5C 67.5,62.8333 67.5,61.1667 67.5,59.5 Z"/></g>
<g><path style="opacity:1" fill="#061006" d="M 96.5,51.5 C 96.5,53.8333 96.5,56.1667 96.5,58.5C 95.0911,60.9717 93.4244,63.305 91.5,65.5C 87.8022,66.3414 84.1355,67.3414 80.5,68.5C 79.5159,71.4281 79.1826,74.4281 79.5,77.5C 78.8333,77.5 78.5,77.1667 78.5,76.5C 78.5,73.8333 78.5,71.1667 78.5,68.5C 77.5,68.5 76.5,68.5 75.5,68.5C 72.6733,67.8916 70.0067,66.8916 67.5,65.5C 67.5,65.1667 67.5,64.8333 67.5,64.5C 70.4848,63.6743 73.1515,62.341 75.5,60.5C 79.674,57.9123 84.0074,55.579 88.5,53.5C 90.9128,51.9493 93.5794,51.2826 96.5,51.5 Z"/></g>
<g><path style="opacity:1" fill="#142813" d="M 66.5,38.5 C 66.1736,47.3494 66.507,56.0161 67.5,64.5C 67.5,64.8333 67.5,65.1667 67.5,65.5C 66.6618,65.8417 66.3284,66.5084 66.5,67.5C 66.1667,67.5 65.8333,67.5 65.5,67.5C 65.5,66.8333 65.1667,66.5 64.5,66.5C 64.5,57.8333 64.5,49.1667 64.5,40.5C 65.1667,39.8333 65.8333,39.1667 66.5,38.5 Z"/></g>
<g><path style="opacity:1" fill="#1e5f1e" d="M 63.5,65.5 C 63.5,66.1667 63.8333,66.5 64.5,66.5C 65.1667,66.5 65.5,66.8333 65.5,67.5C 65.1941,71.7473 65.8608,75.7473 67.5,79.5C 67.5,89.8333 67.5,100.167 67.5,110.5C 67.1667,110.5 66.8333,110.5 66.5,110.5C 66.262,99.8744 66.0953,89.2077 66,78.5C 65.6174,79.056 65.1174,79.3893 64.5,79.5C 64.7845,77.5853 64.4511,75.9187 63.5,74.5C 63.6633,72.1432 63.4966,69.8098 63,67.5C 62.0978,69.4308 60.9312,71.0975 59.5,72.5C 58.8333,72.5 58.5,72.1667 58.5,71.5C 58.4326,70.0413 58.7659,68.7079 59.5,67.5C 60.5137,66.3263 61.847,65.6596 63.5,65.5 Z"/></g>
<g><path style="opacity:1" fill="#030a03" d="M 42.5,75.5 C 42.4431,74.391 42.1098,73.391 41.5,72.5C 41.238,71.0222 41.5713,69.6888 42.5,68.5C 43.7969,70.9732 43.7969,73.3066 42.5,75.5 Z"/></g>
<g><path style="opacity:1" fill="#398537" d="M 91.5,65.5 C 91.6567,66.8734 91.49,68.2068 91,69.5C 90.6924,68.6919 90.1924,68.0253 89.5,67.5C 88.2638,68.2458 86.9305,68.5792 85.5,68.5C 85.3433,69.8734 85.51,71.2068 86,72.5C 86.6259,70.0087 87.4593,70.0087 88.5,72.5C 89.1924,71.9747 89.6924,71.3081 90,70.5C 92.8276,71.9957 94.4943,74.329 95,77.5C 95.3768,76.0577 96.2101,75.0577 97.5,74.5C 97.6107,75.1174 97.944,75.6174 98.5,76C 97.3522,78.6378 95.6855,80.8045 93.5,82.5C 91.834,83.6664 90.1673,83.6664 88.5,82.5C 90.0044,79.5329 90.3378,76.5329 89.5,73.5C 88.7189,74.7287 88.2189,76.062 88,77.5C 85.0123,76.1948 82.1789,76.5282 79.5,78.5C 79.5,78.1667 79.5,77.8333 79.5,77.5C 79.1826,74.4281 79.5159,71.4281 80.5,68.5C 84.1355,67.3414 87.8022,66.3414 91.5,65.5 Z"/></g>
<g><path style="opacity:1" fill="#010801" d="M 48.5,69.5 C 50.8333,69.5 53.1667,69.5 55.5,69.5C 55.0022,72.4869 54.5022,75.4869 54,78.5C 53.5576,74.7496 51.7243,73.7496 48.5,75.5C 48.5,73.5 48.5,71.5 48.5,69.5 Z"/></g>
<g><path style="opacity:1" fill="#235d23" d="M 44.5,67.5 C 44.8204,70.8984 44.487,74.2317 43.5,77.5C 42.7025,77.0431 42.3691,76.3764 42.5,75.5C 43.7969,73.3066 43.7969,70.9732 42.5,68.5C 41.5713,69.6888 41.238,71.0222 41.5,72.5C 40.8501,72.1961 40.1835,71.8627 39.5,71.5C 38.8243,72.6016 38.1577,73.6016 37.5,74.5C 37.6641,71.8127 37.4974,69.146 37,66.5C 35.3221,65.5342 34.6554,64.2009 35,62.5C 37.5525,65.3593 40.7192,67.026 44.5,67.5 Z"/></g>
<g><path style="opacity:1" fill="#010a02" d="M 75.5,70.5 C 75.5,74.1667 75.5,77.8333 75.5,81.5C 74.7784,81.9175 74.2784,82.5842 74,83.5C 73.586,83.0426 73.086,82.7093 72.5,82.5C 72.0237,78.283 71.0237,74.283 69.5,70.5C 71.5156,69.3058 73.5156,69.3058 75.5,70.5 Z"/></g>
<g><path style="opacity:1" fill="#306a2e" d="M 96.5,58.5 C 96.9558,62.5242 95.9558,66.0242 93.5,69C 93.6977,71.1845 94.6977,72.6845 96.5,73.5C 97.1667,73.5 97.5,73.8333 97.5,74.5C 96.2101,75.0577 95.3768,76.0577 95,77.5C 94.4943,74.329 92.8276,71.9957 90,70.5C 89.6924,71.3081 89.1924,71.9747 88.5,72.5C 87.4593,70.0087 86.6259,70.0087 86,72.5C 85.51,71.2068 85.3433,69.8734 85.5,68.5C 86.9305,68.5792 88.2638,68.2458 89.5,67.5C 90.1924,68.0253 90.6924,68.6919 91,69.5C 91.49,68.2068 91.6567,66.8734 91.5,65.5C 93.4244,63.305 95.0911,60.9717 96.5,58.5 Z"/></g>
<g><path style="opacity:1" fill="#030703" d="M 65.5,67.5 C 65.8333,67.5 66.1667,67.5 66.5,67.5C 68.2742,69.8162 69.2742,72.4828 69.5,75.5C 69.6598,77.3545 68.9931,78.6879 67.5,79.5C 65.8608,75.7473 65.1941,71.7473 65.5,67.5 Z"/></g>
<g><path style="opacity:1" fill="#368335" d="M 75.5,68.5 C 76.5,68.5 77.5,68.5 78.5,68.5C 78.5,71.1667 78.5,73.8333 78.5,76.5C 77.4138,76.62 76.7472,77.2867 76.5,78.5C 78.0638,81.3056 78.7305,84.3056 78.5,87.5C 76.7746,94.368 76.1079,101.368 76.5,108.5C 75.8333,108.167 75.1667,107.833 74.5,107.5C 75.4775,102.101 75.4775,96.7677 74.5,91.5C 75.4511,90.0813 75.7845,88.4147 75.5,86.5C 75.5,86.1667 75.5,85.8333 75.5,85.5C 75.5,84.1667 75.5,82.8333 75.5,81.5C 75.5,77.8333 75.5,74.1667 75.5,70.5C 75.5,69.8333 75.5,69.1667 75.5,68.5 Z"/></g>
<g><path style="opacity:1" fill="#377f37" d="M 44.5,67.5 C 45.9587,67.4326 47.2921,67.7659 48.5,68.5C 48.5,68.8333 48.5,69.1667 48.5,69.5C 48.5,71.5 48.5,73.5 48.5,75.5C 48.5,75.8333 48.5,76.1667 48.5,76.5C 47.2502,76.4226 46.4169,75.756 46,74.5C 45.6667,75.8333 45.3333,77.1667 45,78.5C 43.2287,79.3041 41.7287,80.4708 40.5,82C 41.624,82.2492 42.624,82.7492 43.5,83.5C 43.3764,84.1067 43.0431,84.44 42.5,84.5C 40.9505,83.5592 39.2838,82.8925 37.5,82.5C 37.5,82.1667 37.5,81.8333 37.5,81.5C 37.5,79.1667 37.5,76.8333 37.5,74.5C 38.1577,73.6016 38.8243,72.6016 39.5,71.5C 40.1835,71.8627 40.8501,72.1961 41.5,72.5C 42.1098,73.391 42.4431,74.391 42.5,75.5C 42.3691,76.3764 42.7025,77.0431 43.5,77.5C 44.487,74.2317 44.8204,70.8984 44.5,67.5 Z"/></g>
<g><path style="opacity:1" fill="#338932" d="M 58.5,71.5 C 58.5,72.1667 58.8333,72.5 59.5,72.5C 58.1667,74.5 58.1667,76.5 59.5,78.5C 58.0689,78.8807 57.2355,79.8807 57,81.5C 54.93,77.6106 55.43,74.2773 58.5,71.5 Z"/></g>
<g><path style="opacity:1" fill="#0c140c" d="M 93.5,82.5 C 94.5,82.5 95.5,82.5 96.5,82.5C 96.7852,84.288 96.4519,85.9547 95.5,87.5C 94.7492,86.624 94.2492,85.624 94,84.5C 94.0531,89.9736 93.8864,95.3069 93.5,100.5C 90.4647,100.347 88.4647,101.68 87.5,104.5C 84.9122,106.625 81.9122,107.958 78.5,108.5C 77.8333,108.5 77.1667,108.5 76.5,108.5C 76.1079,101.368 76.7746,94.368 78.5,87.5C 80.0048,84.639 80.3381,81.639 79.5,78.5C 82.1789,76.5282 85.0123,76.1948 88,77.5C 88.2189,76.062 88.7189,74.7287 89.5,73.5C 90.3378,76.5329 90.0044,79.5329 88.5,82.5C 90.1673,83.6664 91.834,83.6664 93.5,82.5 Z"/></g>
<g><path style="opacity:1" fill="#063609" d="M 32.5,67.5 C 32.8333,67.5 33.1667,67.5 33.5,67.5C 35.0222,68.1909 36.0222,69.3576 36.5,71C 35.0483,73.4551 34.0483,76.1218 33.5,79C 34.0319,81.0197 35.3652,81.853 37.5,81.5C 37.5,81.8333 37.5,82.1667 37.5,82.5C 36.9976,84.0847 35.9976,84.5847 34.5,84C 30.8708,79.4431 31.2042,75.1098 35.5,71C 34.2899,69.9609 33.2899,68.7942 32.5,67.5 Z"/></g>
<g><path style="opacity:1" fill="#0f3d0f" d="M 78.5,76.5 C 78.5,77.1667 78.8333,77.5 79.5,77.5C 79.5,77.8333 79.5,78.1667 79.5,78.5C 80.3381,81.639 80.0048,84.639 78.5,87.5C 78.7305,84.3056 78.0638,81.3056 76.5,78.5C 76.7472,77.2867 77.4138,76.62 78.5,76.5 Z"/></g>
<g><path style="opacity:1" fill="#2c692a" d="M 59.5,67.5 C 58.7659,68.7079 58.4326,70.0413 58.5,71.5C 55.43,74.2773 54.93,77.6106 57,81.5C 57.2355,79.8807 58.0689,78.8807 59.5,78.5C 59.6621,80.5273 59.4955,82.5273 59,84.5C 58.3292,85.2524 57.4959,85.5858 56.5,85.5C 54.9891,84.4975 53.3224,83.8308 51.5,83.5C 51.5926,81.7526 51.926,79.9193 52.5,78C 51.4366,76.8118 50.1033,76.3118 48.5,76.5C 48.5,76.1667 48.5,75.8333 48.5,75.5C 51.7243,73.7496 53.5576,74.7496 54,78.5C 54.5022,75.4869 55.0022,72.4869 55.5,69.5C 53.1667,69.5 50.8333,69.5 48.5,69.5C 48.5,69.1667 48.5,68.8333 48.5,68.5C 52.1981,68.4476 55.8648,68.1143 59.5,67.5 Z"/></g>
<g><path style="opacity:1" fill="#050d06" d="M 75.5,85.5 C 75.5,85.8333 75.5,86.1667 75.5,86.5C 74.1779,86.33 73.0113,86.6634 72,87.5C 71.5003,94.8258 71.3337,102.159 71.5,109.5C 71.5,109.833 71.5,110.167 71.5,110.5C 71.1667,110.5 70.8333,110.5 70.5,110.5C 70.1667,110.5 69.8333,110.5 69.5,110.5C 70.3054,101.807 70.3054,93.1399 69.5,84.5C 71.6208,84.3253 73.6208,84.6586 75.5,85.5 Z"/></g>
<g><path style="opacity:1" fill="#101b10" d="M 48.5,76.5 C 47.7037,82.8165 47.037,89.1498 46.5,95.5C 45.5,95.5 44.5,95.5 43.5,95.5C 43.5343,99.6295 44.201,103.63 45.5,107.5C 43.847,107.34 42.5137,106.674 41.5,105.5C 41.904,100.878 42.904,96.3783 44.5,92C 42.709,89.8938 42.0423,87.3938 42.5,84.5C 43.0431,84.44 43.3764,84.1067 43.5,83.5C 42.624,82.7492 41.624,82.2492 40.5,82C 41.7287,80.4708 43.2287,79.3041 45,78.5C 45.3333,77.1667 45.6667,75.8333 46,74.5C 46.4169,75.756 47.2502,76.4226 48.5,76.5 Z"/></g>
<g><path style="opacity:1" fill="#4b9b46" d="M 51.5,83.5 C 53.3224,83.8308 54.9891,84.4975 56.5,85.5C 56.7706,94.1847 57.7706,102.518 59.5,110.5C 60.8333,110.5 62.1667,110.5 63.5,110.5C 64.5,110.5 65.5,110.5 66.5,110.5C 66.8333,110.5 67.1667,110.5 67.5,110.5C 68.1667,110.5 68.8333,110.5 69.5,110.5C 69.8333,110.5 70.1667,110.5 70.5,110.5C 68.3587,111.163 66.0254,111.497 63.5,111.5C 59.239,111.589 55.239,110.922 51.5,109.5C 52.5,109.5 53.5,109.5 54.5,109.5C 54.1614,100.706 53.1614,92.039 51.5,83.5 Z"/></g>
<g><path style="opacity:1" fill="#061003" d="M 66.5,110.5 C 65.5,110.5 64.5,110.5 63.5,110.5C 64.2524,100.067 64.5858,89.7339 64.5,79.5C 65.1174,79.3893 65.6174,79.056 66,78.5C 66.0953,89.2077 66.262,99.8744 66.5,110.5 Z"/></g>
<g><path style="opacity:1" fill="#121e12" d="M 101.5,92.5 C 99.1667,95.5 96.5,98.1667 93.5,100.5C 93.8864,95.3069 94.0531,89.9736 94,84.5C 94.2492,85.624 94.7492,86.624 95.5,87.5C 96.4519,85.9547 96.7852,84.288 96.5,82.5C 95.5,82.5 94.5,82.5 93.5,82.5C 95.6855,80.8045 97.3522,78.6378 98.5,76C 97.944,75.6174 97.6107,75.1174 97.5,74.5C 97.5,73.8333 97.1667,73.5 96.5,73.5C 96.2322,71.901 96.5655,70.5676 97.5,69.5C 98.8249,70.9526 99.6582,70.6192 100,68.5C 100.667,69.8333 101.333,69.8333 102,68.5C 103.142,66.3823 103.642,64.3823 103.5,62.5C 104.208,65.3664 104.875,68.1997 105.5,71C 105.989,74.4081 105.322,77.7414 103.5,81C 104.654,81.9138 104.487,82.7471 103,83.5C 102.667,79.5 102.333,75.5 102,71.5C 101.667,72.5 101.333,73.5 101,74.5C 101.058,80.3835 100.225,86.0502 98.5,91.5C 99.325,92.3857 100.325,92.719 101.5,92.5 Z"/></g>
<g><path style="opacity:1" fill="#0b100a" d="M 48.5,76.5 C 50.1033,76.3118 51.4366,76.8118 52.5,78C 51.926,79.9193 51.5926,81.7526 51.5,83.5C 53.1614,92.039 54.1614,100.706 54.5,109.5C 53.5,109.5 52.5,109.5 51.5,109.5C 49.2143,109.405 47.2143,108.738 45.5,107.5C 44.201,103.63 43.5343,99.6295 43.5,95.5C 44.5,95.5 45.5,95.5 46.5,95.5C 47.037,89.1498 47.7037,82.8165 48.5,76.5 Z"/></g>
<g><path style="opacity:1" fill="#889788" d="M 23.5,89.5 C 25.0481,89.8212 25.7148,90.8212 25.5,92.5C 24.5987,91.7095 23.9321,90.7095 23.5,89.5 Z"/></g>
<g><path style="opacity:1" fill="#092d08" d="M 75.5,86.5 C 75.7845,88.4147 75.4511,90.0813 74.5,91.5C 73.5119,96.6405 73.1786,101.974 73.5,107.5C 73.5,108.833 72.8333,109.5 71.5,109.5C 71.3337,102.159 71.5003,94.8258 72,87.5C 73.0113,86.6634 74.1779,86.33 75.5,86.5 Z"/></g>
<g><path style="opacity:1" fill="#041203" d="M 63.5,74.5 C 62.9699,85.1611 62.4699,95.8278 62,106.5C 60.878,99.5514 60.2113,92.5514 60,85.5C 59.5003,93.8267 59.3336,102.16 59.5,110.5C 57.7706,102.518 56.7706,94.1847 56.5,85.5C 57.4959,85.5858 58.3292,85.2524 59,84.5C 59.4955,82.5273 59.6621,80.5273 59.5,78.5C 58.1667,76.5 58.1667,74.5 59.5,72.5C 60.9312,71.0975 62.0978,69.4308 63,67.5C 63.4966,69.8098 63.6633,72.1432 63.5,74.5 Z"/></g>
<g><path style="opacity:1" fill="#2d732d" d="M 74.5,91.5 C 75.4775,96.7677 75.4775,102.101 74.5,107.5C 74.1667,107.5 73.8333,107.5 73.5,107.5C 73.1786,101.974 73.5119,96.6405 74.5,91.5 Z"/></g>
<g><path style="opacity:1" fill="#104311" d="M 67.5,65.5 C 70.0067,66.8916 72.6733,67.8916 75.5,68.5C 75.5,69.1667 75.5,69.8333 75.5,70.5C 73.5156,69.3058 71.5156,69.3058 69.5,70.5C 71.0237,74.283 72.0237,78.283 72.5,82.5C 73.086,82.7093 73.586,83.0426 74,83.5C 74.2784,82.5842 74.7784,81.9175 75.5,81.5C 75.5,82.8333 75.5,84.1667 75.5,85.5C 73.6208,84.6586 71.6208,84.3253 69.5,84.5C 70.3054,93.1399 70.3054,101.807 69.5,110.5C 68.8333,110.5 68.1667,110.5 67.5,110.5C 67.5,100.167 67.5,89.8333 67.5,79.5C 68.9931,78.6879 69.6598,77.3545 69.5,75.5C 69.2742,72.4828 68.2742,69.8162 66.5,67.5C 66.3284,66.5084 66.6618,65.8417 67.5,65.5 Z"/></g>
<g><path style="opacity:0.675" fill="#8c8c8c" d="M 33.5,100.5 C 35.0269,100.427 36.0269,101.094 36.5,102.5C 34.9731,102.573 33.9731,101.906 33.5,100.5 Z"/></g>
<g><path style="opacity:1" fill="#666a66" d="M 93.5,100.5 C 91.8525,102.326 89.8525,103.66 87.5,104.5C 88.4647,101.68 90.4647,100.347 93.5,100.5 Z"/></g>
<g><path style="opacity:1" fill="#165216" d="M 63.5,74.5 C 64.4511,75.9187 64.7845,77.5853 64.5,79.5C 64.5858,89.7339 64.2524,100.067 63.5,110.5C 62.1667,110.5 60.8333,110.5 59.5,110.5C 59.3336,102.16 59.5003,93.8267 60,85.5C 60.2113,92.5514 60.878,99.5514 62,106.5C 62.4699,95.8278 62.9699,85.1611 63.5,74.5 Z"/></g>
<g><path style="opacity:1" fill="#9dc39c" d="M 73.5,107.5 C 73.8333,107.5 74.1667,107.5 74.5,107.5C 75.1667,107.833 75.8333,108.167 76.5,108.5C 77.1667,108.5 77.8333,108.5 78.5,108.5C 76.4855,109.924 74.1522,110.59 71.5,110.5C 71.5,110.167 71.5,109.833 71.5,109.5C 72.8333,109.5 73.5,108.833 73.5,107.5 Z"/></g>
</svg>
